<?xml version="1.0" encoding="utf-8"?>
<!-- Generator: Adobe Illustrator 22.0.1, SVG Export Plug-In . SVG Version: 6.00 Build 0)  -->
<svg version="1.1" preserveAspectRatio="xMidYMid meet" id="Layer_1" xmlns="http://www.w3.org/2000/svg" xmlns:xlink="http://www.w3.org/1999/xlink" x="0px" y="0px"
	 viewBox="0 0 237 72" style="enable-background:new 0 0 237 72;" xml:space="preserve">
<style type="text/css">
	.st0{fill:#FFFFFF;}
	.st1{fill:url(#SVGID_1_);}
	.st2{fill:url(#SVGID_2_);}
	.st3{fill:url(#SVGID_3_);}
	.st4{clip-path:url(#SVGID_5_);}
	.st5{clip-path:url(#SVGID_7_);}
	.st6{fill:url(#SVGID_8_);}
	.st7{fill:#FEFEFE;}
	.st8{clip-path:url(#SVGID_10_);}
	.st9{fill:url(#SVGID_11_);}
	.st10{fill:url(#SVGID_12_);}
	.st11{fill:url(#SVGID_13_);}
	.st12{fill:url(#SVGID_14_);}
	.st13{fill:url(#SVGID_15_);}
	.st14{fill:url(#SVGID_16_);}
	.st15{fill:url(#SVGID_17_);}
	.st16{fill:url(#SVGID_18_);}
</style>
<g>
	<g id="Layer_1_1_">
		<path class="st0" d="M101.5,35.4h-1.8c-1.2-0.6-2.1-1.8-3.2-3.8L84.8,8.7l-0.1-0.1c-0.2-0.3-0.5-0.8-1-0.8s-0.7,0.3-1,1l-7.3,19.9
			c-1,2.8-3,5.2-5.6,6.7h-2.4c-0.6,0-1,0.3-1,0.9s0.3,0.8,1,0.8h14.9c0.7,0,1-0.4,1-0.8s-0.4-0.9-1-0.9H80c-2-0.9-3.2-2.8-3.2-5
			c0.1-0.7,0.3-1.5,0.6-2.2l1-2.7h9.1l2.7,5.3c0.4,0.8,0.5,1.7,0.5,2.6c0,0.6-0.6,1.3-1.6,2h-2.1c-0.6,0-1,0.3-1,0.9s0.3,0.8,1,0.8
			h14.6c0.6,0,1-0.3,1-0.9S102.3,35.4,101.5,35.4z M86.5,23.8h-7.6l3.2-8.6L86.5,23.8z"/>
		<path class="st0" d="M120.9,19.9c-1-0.3-2-0.6-3-0.9c-3.5-0.9-6.5-1.6-6.5-5.3c0-2.5,3.2-3.6,6.1-3.6c2.5,0.1,5,1.1,6.9,2.8
			c1.1,1.2,2.1,2.5,3,3.8c0.6,0.9,0.8,1.1,1,1.1c0.7,0,0.7-1.1,0.7-1.9V9.5c0-1-0.4-1.1-0.7-1.1c-0.3,0-0.6,0.2-0.8,0.4
			c-1.1,0.8-2.4,1.3-3.7,1.3c-0.6-0.1-1.2-0.3-1.7-0.5l-0.7-0.3c-1.3-0.5-2.6-0.8-4-0.8c-5.2,0-10.6,2.8-10.6,8.1
			c0,5.8,5.6,7.6,9.9,8.5c4.6,1.1,8.9,2.1,8.9,6.2c0,2.5-2.9,4.5-6.4,4.5c-3.2,0-6.3-1.2-8.6-3.4c-1.2-1.1-2.1-2.5-2.8-3.9
			c-0.5-0.9-0.7-1.3-1.1-1.3s-0.7,0.1-0.7,1.1v7.1c0,0.8,0,1.9,0.7,1.9c0.3,0,0.4-0.2,0.6-0.5c0.1-0.2,0.3-0.4,0.5-0.6
			c0.6-0.6,1.5-0.9,2.3-0.9c1.2,0,2.4,0.3,3.5,0.9c1.7,0.8,3.6,1.3,5.6,1.2c4.7,0,11.3-3.3,11.3-8.6
			C130.6,22.9,125.9,21.4,120.9,19.9z"/>
		<path class="st0" d="M154.4,8.9h-17.8c-0.7,0-1,0.4-1,0.8s0.4,0.9,1,0.9h3.1c0.6,0.2,1.6,1.4,1.6,3.5v17.9
			c0.2,1.2-0.3,2.4-1.3,3.2l-0.2,0.2h-2.1c-0.6,0-1,0.3-1,0.9s0.3,0.8,1,0.8h12.7c0.7,0,1-0.4,1-0.8s-0.4-0.9-1-0.9h-2.4l-0.2-0.2
			c-0.9-0.8-1.4-2-1.3-3.2v-8h8.9c4.3,0,9-2.9,9-7.1C164.4,11.4,158.6,8.9,154.4,8.9z M155.6,22.3h-9V10.6h8.2
			c2.3,1.2,3.8,3.6,3.7,6.2C158.5,20.2,157.2,21.3,155.6,22.3L155.6,22.3z"/>
		<path class="st0" d="M195.6,27c-0.4,0-0.6,0.4-0.9,1l-0.2,0.4c-1.4,3.3-4.2,5.8-7.5,7h-7.5V23h6.1c1.1,0,2.8,1.5,3.5,2.6v1.2
			c0,0.5,0.2,1.1,0.8,1.1s0.8-0.6,0.8-1.1v-9.1c0-0.5-0.3-1.1-0.8-1.1s-0.8,0.5-0.8,1.1v1c-0.6,1.1-2.3,2.6-3.5,2.6h-6.1V10.6h7.1
			l0.2,0.1c2.5,1,4.8,2.6,6.5,4.7c0.3,0.4,0.6,0.9,0.8,1.3c0.3,0.7,0.6,1.1,1,1.1c0.2,0,0.8-0.1,0.8-1v-6.5c0-0.9-0.5-1.4-1.6-1.4
			h-24.6c-0.7,0-1,0.4-1,0.8s0.4,0.9,1,0.9h3.1c0.6,0.2,1.6,1.4,1.6,3.5v17.9c0,2.2-1.1,3.2-1.6,3.5h-3c-0.6,0-1,0.3-1,0.9
			s0.3,0.8,1,0.8h24.8c1.1,0,1.6-0.5,1.6-1.4v-7.9C196.2,27.3,195.9,27,195.6,27z"/>
		<path class="st0" d="M235.9,8.9h-11.8c-0.7,0-1,0.4-1,0.8s0.4,0.9,1,0.9h2.3c0.9,0.3,2.6,1.6,2.6,4.7v13.9L210.6,9
			c-0.1-0.1-0.1-0.1-0.2-0.1h-8.1c-0.5-0.1-0.9,0.3-1,0.8c0,0,0,0,0,0c0,0.5,0.4,0.8,1,0.8h1.4c1.1,0.6,2.1,1.4,3,2.3l1.9,2.1v15.8
			c0,3-1.7,4.4-2.6,4.7h-2.3c-0.6,0-1,0.3-1,0.9s0.2,0.8,1,0.8h11.9c0.7,0,1-0.4,1-0.8s-0.4-0.9-1-0.9h-2.6
			c-1.7-0.9-2.7-2.7-2.6-4.7V16.6l18.5,19.9c0.2,0.3,0.6,0.5,1,0.6c0.5,0,0.9-0.6,0.9-1.5V15.2c-0.1-1.9,0.9-3.8,2.6-4.7h2.6
			c0.6,0,1-0.3,1-0.9S236.6,8.9,235.9,8.9z"/>
		
			<linearGradient id="SVGID_1_" gradientUnits="userSpaceOnUse" x1="-18.9275" y1="90.6819" x2="8.8825" y2="55.4719" gradientTransform="matrix(1 0 0 -1 30 97)">
			<stop  offset="0" style="stop-color:#211D49"/>
			<stop  offset="8.000000e-02" style="stop-color:#2A2865"/>
			<stop  offset="0.19" style="stop-color:#3B4B87"/>
			<stop  offset="0.43" style="stop-color:#E8E8E8"/>
			<stop  offset="0.88" style="stop-color:#292965"/>
			<stop  offset="1" style="stop-color:#1F1D49"/>
		</linearGradient>
		<path class="st1" d="M27.6,71.6C54,56.9,54.8,43.6,54.8,43.6V6.9C46.3,2.7,37,0.5,27.6,0.3C18.1,0.5,8.8,2.7,0.3,6.9v36.7
			C0.3,43.6,1.2,56.9,27.6,71.6z"/>
		
			<linearGradient id="SVGID_2_" gradientUnits="userSpaceOnUse" x1="2.2145" y1="58.7677" x2="-9.1255" y2="85.7577" gradientTransform="matrix(1 0 0 -1 30 97)">
			<stop  offset="0" style="stop-color:#A0CAEC"/>
			<stop  offset="0.13" style="stop-color:#9DC5E7"/>
			<stop  offset="0.29" style="stop-color:#92B8DA"/>
			<stop  offset="0.45" style="stop-color:#81A1C4"/>
			<stop  offset="0.61" style="stop-color:#6A81A6"/>
			<stop  offset="0.79" style="stop-color:#4B587E"/>
			<stop  offset="0.96" style="stop-color:#27274E"/>
			<stop  offset="1" style="stop-color:#1D1A42"/>
		</linearGradient>
		<path class="st2" d="M27.6,66.8c23.3-13,22.9-24.1,22.9-24.1V10.1c-7.1-3.6-14.9-5.6-22.9-5.6c-8,0.1-15.8,2-22.9,5.6v32.6
			C4.7,42.7,4.3,53.8,27.6,66.8z"/>
		
			<linearGradient id="SVGID_3_" gradientUnits="userSpaceOnUse" x1="5.3731" y1="57.3322" x2="-6.8369" y2="75.0922" gradientTransform="matrix(1 0 0 -1 30 97)">
			<stop  offset="0" style="stop-color:#7ABDE8"/>
			<stop  offset="0.14" style="stop-color:#77B8E3"/>
			<stop  offset="0.3" style="stop-color:#70ABD6"/>
			<stop  offset="0.47" style="stop-color:#6394C0"/>
			<stop  offset="0.64" style="stop-color:#5174A0"/>
			<stop  offset="0.82" style="stop-color:#3A4B79"/>
			<stop  offset="1" style="stop-color:#1E1B49"/>
		</linearGradient>
		<path class="st3" d="M27.6,65.5c22.3-12.4,21.9-23.1,21.9-23.1V11.1c-6.8-3.5-14.3-5.3-21.9-5.3c-7.6,0.1-15.1,1.9-21.9,5.3v31.3
			C5.7,42.4,5.3,53.1,27.6,65.5z"/>
		<g>
			<defs>
				<path id="SVGID_4_" d="M27.6,64.6c22.3-12.4,21.9-23.1,21.9-23.1V10.1c-6.8-3.4-14.3-5.3-21.9-5.3c-7.6,0.1-15.1,1.9-21.9,5.3
					v31.3C5.7,41.5,5.3,52.1,27.6,64.6z"/>
			</defs>
			<clipPath id="SVGID_5_">
				<use xlink:href="#SVGID_4_"  style="overflow:visible;"/>
			</clipPath>
			<g class="st4">
				<g>
					
						<image style="overflow:visible;enable-background:new    ;" width="120" height="114" xlink:href="A409ECA06E6CF2A3.png"  transform="matrix(1 0 0 1 -32 -26)">
					</image>
				</g>
			</g>
		</g>
		<g>
			<defs>
				<path id="SVGID_6_" d="M27.6,65.5c22.3-12.4,21.9-23.1,21.9-23.1V11.1c-6.8-3.5-14.3-5.3-21.9-5.3c-7.6,0.1-15.1,1.9-21.9,5.3
					v31.3C5.7,42.4,5.3,53.1,27.6,65.5z"/>
			</defs>
			<clipPath id="SVGID_7_">
				<use xlink:href="#SVGID_6_"  style="overflow:visible;"/>
			</clipPath>
			<g class="st5">
				
					<linearGradient id="SVGID_8_" gradientUnits="userSpaceOnUse" x1="27.585" y1="46.24" x2="27.585" y2="28.08" gradientTransform="matrix(1 0 0 -1 0 74)">
					<stop  offset="0" style="stop-color:#E2E9F1"/>
					<stop  offset="0.14" style="stop-color:#DCE4EE"/>
					<stop  offset="0.32" style="stop-color:#CBD7E6"/>
					<stop  offset="0.54" style="stop-color:#AFC1DA"/>
					<stop  offset="0.77" style="stop-color:#88A2C8"/>
					<stop  offset="1" style="stop-color:#5A7EB3"/>
				</linearGradient>
				<polygon class="st6" points="27.6,25.3 50.4,51.9 51.1,37.1 27.6,10.5 4.1,37.1 4.7,52 				"/>
			</g>
		</g>
		<path class="st7" d="M14.7,14.2l-1-3.6l-1,3.6l-3.6,1l3.6,1l1,3.6l1-3.6l3.6-1L14.7,14.2z M14,15.6l-0.3,1.2l-0.3-1.2l-1.2-0.3
			l1.2-0.3l0.3-1.2l0.3,1.2l1.2,0.3L14,15.6z"/>
		<g>
			<defs>
				<path id="SVGID_9_" d="M27.6,65.5c22.3-12.4,21.9-23.1,21.9-23.1V11.1c-6.8-3.5-14.3-5.3-21.9-5.3c-7.6,0.1-15.1,1.9-21.9,5.3
					v31.3C5.7,42.4,5.3,53.1,27.6,65.5z"/>
			</defs>
			<clipPath id="SVGID_10_">
				<use xlink:href="#SVGID_9_"  style="overflow:visible;"/>
			</clipPath>
			<g class="st8">
				<path class="st0" d="M7.3,54C6.9,42.7,15.7,33.2,27,32.8c11.3-0.4,20.8,8.4,21.2,19.7c0.4,11.3-8.4,20.7-19.6,21.2
					C17.3,74.1,7.8,65.3,7.3,54C7.3,54,7.3,54,7.3,54z"/>
				<g id="_Group_">
					
						<linearGradient id="SVGID_11_" gradientUnits="userSpaceOnUse" x1="3.449" y1="49.3962" x2="-0.781" y2="39.4662" gradientTransform="matrix(1 0 0 -1 30 97)">
						<stop  offset="0" style="stop-color:#C1E5F8"/>
						<stop  offset="0.12" style="stop-color:#B4D4EB"/>
						<stop  offset="0.37" style="stop-color:#91A9C8"/>
						<stop  offset="0.71" style="stop-color:#5A6490"/>
						<stop  offset="1" style="stop-color:#26235C"/>
					</linearGradient>
					<path class="st9" d="M42.7,57.6c0,0.1,0,0.1-0.1,0.2c-6.4,2.5-12.4,1.8-18.3-0.8c-0.8,2.1-1.5,4.2-2.1,6.4c-2-0.9-4-2-5.7-3.3
						c0.2-2.8,0.7-5.6,1.7-8.3C26,57.2,34.1,60,42.7,57.6z"/>
					
						<linearGradient id="SVGID_12_" gradientUnits="userSpaceOnUse" x1="1.8763" y1="50.0601" x2="-2.3437" y2="40.1401" gradientTransform="matrix(1 0 0 -1 30 97)">
						<stop  offset="0" style="stop-color:#C1E5F8"/>
						<stop  offset="0.12" style="stop-color:#B4D4EB"/>
						<stop  offset="0.37" style="stop-color:#91A9C8"/>
						<stop  offset="0.71" style="stop-color:#5A6490"/>
						<stop  offset="1" style="stop-color:#26235C"/>
					</linearGradient>
					<path class="st10" d="M43.2,47.8c0.1,0.1,0.1,0.1,0,0.2c-5.2,2.2-10,1.2-14.8-0.8c-1.2,2.4-2.3,4.9-3.2,7.4
						c-2.3-1.1-4.6-2.4-6.6-4c1.1-3.1,2.6-6,4.6-8.6c2.7,2.6,6,4.5,9.7,5.5C36.1,48.4,39.9,48.9,43.2,47.8z"/>
					
						<linearGradient id="SVGID_13_" gradientUnits="userSpaceOnUse" x1="-22.5157" y1="90.3533" x2="-27.1257" y2="81.1234" gradientTransform="matrix(0.9586 -0.2849 -0.2849 -0.9586 76.3322 125.3452)">
						<stop  offset="0" style="stop-color:#B4D3E8"/>
						<stop  offset="1" style="stop-color:#2F3860"/>
					</linearGradient>
					<path class="st11" d="M35,66.2c0.1,0.1,0.1,0.1,0,0.2c-4.7,1.8-9.2,1.1-13.5-0.6c-0.5,1.6-0.8,3.1-1.1,4.7
						c-3.7-0.7-4.3-6.6-4-9.2C22.3,65.3,28.5,67.6,35,66.2z"/>
					
						<linearGradient id="SVGID_14_" gradientUnits="userSpaceOnUse" x1="-3.3356" y1="52.2824" x2="-7.5556" y2="42.3524" gradientTransform="matrix(1 0 0 -1 30 97)">
						<stop  offset="0" style="stop-color:#C1E5F8"/>
						<stop  offset="0.12" style="stop-color:#B4D4EB"/>
						<stop  offset="0.37" style="stop-color:#91A9C8"/>
						<stop  offset="0.71" style="stop-color:#5A6490"/>
						<stop  offset="1" style="stop-color:#26235C"/>
					</linearGradient>
					<path class="st12" d="M23.9,41c2.7-3.4,7.8-7.8,11.1-5.6c-2,3-3.7,6.1-5.4,9.3C27.5,43.9,25.5,42.6,23.9,41z"/>
					
						<linearGradient id="SVGID_15_" gradientUnits="userSpaceOnUse" x1="-33.8129" y1="95.9969" x2="-38.4229" y2="86.7769" gradientTransform="matrix(0.9586 -0.2849 -0.2849 -0.9586 76.3322 125.3452)">
						<stop  offset="0" style="stop-color:#B4D3E8"/>
						<stop  offset="1" style="stop-color:#2F3860"/>
					</linearGradient>
					<path class="st13" d="M15.5,62.6c0.1,2.3,0.9,4.4,2.1,6.3c-5.8-3.4-9-11.4-8.3-16.4c0,0,0,0,0-0.1c0.4,0.7,0.7,1.4,1,2.2
						c0.9,1.6,2,3,3.4,4.2c0.7,0.5,1.3,1,1.8,1.6C15.6,61,15.5,61.9,15.5,62.6z"/>
					
						<linearGradient id="SVGID_16_" gradientUnits="userSpaceOnUse" x1="-6.8891" y1="53.7939" x2="-11.1091" y2="43.8739" gradientTransform="matrix(1 0 0 -1 30 97)">
						<stop  offset="0" style="stop-color:#C1E5F8"/>
						<stop  offset="0.12" style="stop-color:#B4D4EB"/>
						<stop  offset="0.37" style="stop-color:#91A9C8"/>
						<stop  offset="0.71" style="stop-color:#5A6490"/>
						<stop  offset="1" style="stop-color:#26235C"/>
					</linearGradient>
					<path class="st14" d="M31.9,34.6c-2.6,0.4-6.5,3-8.7,5.8c-1.2-1.3-1.9-2.9-2-4.7C24.6,34.3,28.3,33.9,31.9,34.6z"/>
					
						<linearGradient id="SVGID_17_" gradientUnits="userSpaceOnUse" x1="-12.23" y1="56.07" x2="-16.46" y2="46.14" gradientTransform="matrix(1 0 0 -1 30 97)">
						<stop  offset="0" style="stop-color:#C1E5F8"/>
						<stop  offset="0.12" style="stop-color:#B4D4EB"/>
						<stop  offset="0.37" style="stop-color:#91A9C8"/>
						<stop  offset="0.71" style="stop-color:#5A6490"/>
						<stop  offset="1" style="stop-color:#26235C"/>
					</linearGradient>
					<path class="st15" d="M16.1,55c-0.3,1.4-0.4,2.8-0.8,4.1C12,56,9.1,52.1,9.5,48.7c0.2-2.4,1.8-4.3,3-6.5
						c-0.5,2.6,2,6.2,4.6,8.6C16.9,52.1,16.4,53.6,16.1,55z"/>
					
						<linearGradient id="SVGID_18_" gradientUnits="userSpaceOnUse" x1="-11.8802" y1="55.9201" x2="-16.1102" y2="46.0001" gradientTransform="matrix(1 0 0 -1 30 97)">
						<stop  offset="0" style="stop-color:#C1E5F8"/>
						<stop  offset="0.12" style="stop-color:#B4D4EB"/>
						<stop  offset="0.37" style="stop-color:#91A9C8"/>
						<stop  offset="0.71" style="stop-color:#5A6490"/>
						<stop  offset="1" style="stop-color:#26235C"/>
					</linearGradient>
					<path class="st16" d="M22.5,41.2c-2,2.5-3.6,5.4-4.8,8.4c-2.7-2.3-4.5-5.5-4.1-8.1c0.3-2,4.6-4.6,6.4-5.5
						C20.2,38,21.1,39.8,22.5,41.2z"/>
				</g>
			</g>
		</g>
		<path class="st0" d="M83.9,45.4h-6.1c-0.3,0-0.4,0.1-0.4,0.4s0,0.4,0.4,0.4H79c1,0.4,1.6,1.3,1.6,2.4v7.1
			c-0.2,1.9-1.8,3.3-3.7,3.2c-2.5,0-4-1.4-4-3.8v-7.1c-0.1-0.7,0.3-1.4,0.9-1.8h1.7c0.4,0,0.4-0.3,0.4-0.4s-0.2-0.4-0.4-0.4H68
			c-0.3,0-0.4,0.1-0.4,0.4s0,0.4,0.4,0.4h1.6c0.6,0.4,1,1.1,0.9,1.8v6.8c0,3,2.6,4.8,6.5,4.8c2.3,0.2,4.3-1.4,4.5-3.7
			c0-0.1,0-0.3,0-0.4v-6.9c-0.1-1.1,0.6-2,1.6-2.4h1c0.4,0,0.4-0.3,0.4-0.4S84.2,45.4,83.9,45.4z"/>
		<path class="st0" d="M104.2,45.4h-6.1c-0.3,0-0.4,0.1-0.4,0.4s0,0.4,0.4,0.4h1.2c0.9,0.4,1.5,1.4,1.4,2.4v7.1l-9.5-10.1
			c0,0,0,0-0.1,0h-4.1c-0.2,0-0.4,0.1-0.4,0.4c0,0,0,0,0,0c0,0.2,0.2,0.4,0.4,0.4h0.7c0.6,0.3,1.1,0.7,1.6,1.1l1,1v7.9
			c0.1,1-0.5,2-1.4,2.4h-1.2c-0.4,0-0.4,0.3-0.4,0.4s0.2,0.3,0.4,0.3h6.1c0.3,0,0.4-0.1,0.4-0.3s0-0.4-0.4-0.4h-1.4
			c-0.9-0.4-1.5-1.4-1.4-2.4V49l9.6,10c0.1,0.1,0.3,0.2,0.5,0.2c0.3,0,0.4-0.4,0.4-0.7V48.5c-0.1-1,0.5-1.9,1.4-2.4h1.4
			c0.4,0,0.4-0.3,0.4-0.4S104.5,45.4,104.2,45.4z"/>
		<path class="st0" d="M113.4,46.1h1.2c0.4,0,0.4-0.3,0.4-0.4s-0.2-0.4-0.4-0.4h-6.8c-0.3,0-0.4,0.1-0.4,0.4s0,0.4,0.4,0.4h1.2
			c0.6,0.4,1,1.1,0.9,1.8v8.9c0.1,0.7-0.3,1.4-0.9,1.8h-1.2c-0.4,0-0.4,0.3-0.4,0.4s0.2,0.3,0.4,0.3h6.8c0.3,0,0.4-0.1,0.4-0.3
			s0-0.4-0.4-0.4h-1.2c-0.6-0.4-1-1.1-0.9-1.8v-8.9C112.4,47.2,112.8,46.4,113.4,46.1z"/>
		<path class="st0" d="M136.7,45.4H129c-0.3,0-0.4,0.1-0.4,0.4s0.1,0.4,0.4,0.4h1.6c0.7,0.4,1,1.1,1,1.8c0,0.4-0.1,0.8-0.3,1.1
			l-3.3,7.1l-4.1-7.6c-0.2-0.3-0.3-0.7-0.3-1.1c0-0.7,0.5-1.3,1-1.3h1.5c0.4,0,0.4-0.3,0.4-0.4s-0.2-0.4-0.4-0.4h-8.9
			c-0.3,0-0.4,0.1-0.4,0.4s0,0.4,0.4,0.4h1.5c1.1,0.6,2,1.5,2.5,2.6l5.6,10.4l0,0c0.1,0.2,0.2,0.3,0.3,0.3s0.2-0.2,0.3-0.3l4.6-9.9
			c0.6-1.4,1.6-2.5,3-3.1h1.8c0.4,0,0.4-0.3,0.4-0.4S137,45.4,136.7,45.4z"/>
		<path class="st0" d="M152.3,54.4c-0.2,0-0.3,0.2-0.4,0.4c0,0.1-0.1,0.1-0.1,0.2c-0.8,1.7-2.2,2.9-3.9,3.5H144v-6.3h3.2
			c0.8,0.2,1.4,0.7,1.8,1.3v0.6c0,0.2,0.1,0.5,0.4,0.5s0.4-0.3,0.4-0.5v-4.5c0-0.2-0.1-0.5-0.4-0.5s-0.4,0.2-0.4,0.5v0.5
			c-0.4,0.7-1.1,1.2-1.8,1.3H144v-5.4h3.7h0.1c1.3,0.5,2.5,1.3,3.3,2.4c0.2,0.2,0.3,0.4,0.4,0.7c0.2,0.3,0.3,0.5,0.4,0.5
			s0.3-0.1,0.3-0.4V46c0-0.4-0.2-0.6-0.8-0.6H139c-0.3,0-0.4,0.1-0.4,0.4s0,0.4,0.4,0.4h1.6c0.6,0.4,1,1.1,0.9,1.8v8.9
			c0.1,0.7-0.3,1.4-0.9,1.8h-1.5c-0.4,0-0.4,0.3-0.4,0.4s0.2,0.3,0.4,0.3h12.7c0.5,0,0.8-0.2,0.8-0.6v-3.9
			C152.6,54.5,152.5,54.4,152.3,54.4z"/>
		<path class="st0" d="M163.9,58.6h-1.6l-0.1-0.1c-0.5-0.4-0.7-1-0.7-1.6v-3.6h4.8c2,0,4.3-1.9,4.3-3.9c0-2.4-2.9-3.9-4.8-3.9h-9.3
			c-0.3,0-0.4,0.1-0.4,0.4s0,0.4,0.4,0.4h1.6c0.6,0.4,1,1.1,0.9,1.8v8.9c0.1,0.6-0.2,1.2-0.7,1.6l-0.1,0.1h-1.4
			c-0.4,0-0.4,0.3-0.4,0.4s0.2,0.3,0.4,0.3h7.1c0.3,0,0.4-0.1,0.4-0.3S164.3,58.6,163.9,58.6z M166.4,52h-4.9v-5.9h4.5h0.1
			c1,0.7,1.6,1.9,1.7,3.1C167.9,50.3,167.4,51.4,166.4,52z"/>
		<path class="st0" d="M171.8,58.6h-1.3c-0.4-0.2-0.7-0.5-0.9-0.8l-1.6-2.8c-0.4-0.8-0.8-1.5-1.3-2.2h-0.8c-0.6,0-1.1,0-1.7,0.2
			c0.1,0.4,1.4,2.4,1.7,2.9c0.4,0.7,0.8,1.4,1.1,2.1c0.1,0.3-0.1,0.5-0.3,0.7h-1c-0.4,0-0.4,0.3-0.4,0.4s0.2,0.3,0.4,0.3h6.1
			c0.3,0,0.4-0.1,0.4-0.3S172.2,58.6,171.8,58.6z"/>
		<path class="st0" d="M182.9,50.8c-0.5-0.2-1-0.3-1.6-0.4c-1.7-0.4-3.4-0.8-3.4-2.7c0-1.3,1.7-1.9,3.2-1.9c1.3,0.1,2.6,0.5,3.6,1.4
			c0.6,0.6,1.1,1.2,1.5,1.9c0.3,0.5,0.4,0.5,0.5,0.5c0.3,0,0.3-0.5,0.3-0.9v-3.2c0-0.5-0.2-0.5-0.3-0.5s-0.2,0.1-0.4,0.2
			c-0.6,0.4-1.3,0.7-2,0.7c-0.3,0-0.6-0.1-0.9-0.3l-0.4-0.1c-0.6-0.2-1.3-0.4-2-0.4c-1.2,0-2.5,0.3-3.5,0.9c-1.1,0.6-1.8,1.7-1.8,3
			c0,1.4,0.5,3.3,5,4.2l0,0c2.4,0.5,4.6,1.1,4.6,3.2c0,1.3-1.5,2.3-3.4,2.3c-1.6,0-3.2-0.6-4.4-1.7c-0.6-0.6-1.1-1.3-1.5-2
			c-0.3-0.5-0.4-0.6-0.5-0.6s-0.3,0.1-0.3,0.5v3.5c0,0.4,0,0.9,0.3,0.9c0.1,0,0.2-0.1,0.2-0.2c0.1-0.1,0.2-0.2,0.3-0.3
			c0.3-0.3,0.8-0.5,1.2-0.5c0.6,0,1.3,0.2,1.8,0.4c0.9,0.4,1.9,0.6,2.8,0.6c2.4,0,5.8-1.6,5.8-4.2C187.8,52.3,185.4,51.6,182.9,50.8
			z"/>
		<path class="st0" d="M197.2,46.1h1.2c0.4,0,0.4-0.3,0.4-0.4s-0.2-0.4-0.4-0.4h-6.8c-0.3,0-0.4,0.1-0.4,0.4s0,0.4,0.4,0.4h1.2
			c0.6,0.4,1,1.1,0.9,1.8v8.9c0.1,0.7-0.3,1.4-0.9,1.8h-1.2c-0.4,0-0.4,0.3-0.4,0.4s0.2,0.3,0.4,0.3h6.8c0.3,0,0.4-0.1,0.4-0.3
			s-0.1-0.4-0.4-0.4h-1.2c-0.6-0.4-1-1.1-0.9-1.8v-8.9C196.2,47.2,196.5,46.4,197.2,46.1z"/>
		<path class="st0" d="M214.2,45.4h-11.5c-0.5,0-0.5,0.3-0.5,0.6v3c0,0.2,0,0.5,0.2,0.5s0.3-0.2,0.5-0.6c0.1-0.1,0.1-0.3,0.2-0.4
			c0.5-1.1,1.4-1.9,2.5-2.3h1.7v10.6c0.1,0.6-0.2,1.2-0.7,1.6l-0.1,0.1h-1.6c-0.4,0-0.4,0.3-0.4,0.4s0.2,0.3,0.4,0.3h7.4
			c0.3,0,0.4-0.1,0.4-0.3s0-0.4-0.4-0.4h-1.7l-0.1-0.1c-0.5-0.4-0.7-1-0.7-1.6V46.1h1.7c1.1,0.4,2,1.2,2.5,2.3
			c0.1,0.2,0.1,0.3,0.2,0.4c0.2,0.3,0.3,0.6,0.5,0.6s0.2-0.3,0.2-0.5V46C214.7,45.7,214.7,45.4,214.2,45.4z"/>
		<path class="st0" d="M235.3,45.4h-6.2c-0.3,0-0.4,0.1-0.4,0.4s0,0.4,0.4,0.4h1.1c0.3,0.3,0.5,0.6,0.5,1c0,0.2-0.1,0.5-0.3,0.6
			c0,0.1-0.1,0.1-0.1,0.2l-3.5,4l-4-4.4c-0.4-0.4-0.6-0.8-0.6-1.1c0-0.1,0-0.2,0.1-0.2l0.1-0.1h0.8c0.4,0,0.4-0.3,0.4-0.4
			s-0.2-0.4-0.4-0.4H217c-0.3,0-0.4,0.1-0.4,0.4s0,0.4,0.4,0.4h0.9c0.6,0.5,1.2,1,1.7,1.6l5.1,5.6v3.5c0.1,0.6-0.2,1.2-0.7,1.6
			l-0.1,0.1h-1.7c-0.4,0-0.4,0.3-0.4,0.4s0.2,0.3,0.4,0.3h7.7c0.3,0,0.4-0.1,0.4-0.3s0-0.4-0.4-0.4H228l-0.1-0.1
			c-0.5-0.4-0.7-1-0.7-1.6v-4l3.4-4.1c1-1,2.1-1.9,3.4-2.5h1.2c0.4,0,0.4-0.3,0.4-0.4S235.5,45.4,235.3,45.4z"/>
	</g>
</g>
</svg>
